# xmcd
# 
# Track frame offsets:
#     150
#     13800
#     30375
#     43725
#     65124
#     88788
#     103253
#     125970
#     131533
#     152078
# 
# Disc length: 2438
# 
# Revision: 0
# Processed by: cddbd v1.5.2PL0 Copyright (c) Steve Scherf et al.
# Submitted via: fre:ac v1.0.31
# 
DISCID=8e09840a
DTITLE=Rozi Plain - Inside Over Here
DYEAR=2008
DGENRE=Folk
TTITLE0=Lets Go
TTITLE1=Stolen Shark
TTITLE2=Barbs and Velcro
TTITLE3=Foot Out
TTITLE4=Knives and Forks
TTITLE5=360 Degrees
TTITLE6=Roof Rook Crook Crow
TTITLE7=Want For No One
TTITLE8=The Post
TTITLE9=Fruit
EXTD=
EXTT0=
EXTT1=
EXTT2=
EXTT3=
EXTT4=
EXTT5=
EXTT6=
EXTT7=
EXTT8=
EXTT9=
PLAYORDER=
